<?xml version="1.0" encoding="UTF-8"?>
<svg width="38px" height="36px" viewBox="0 0 38 36" version="1.1"
    xmlns="http://www.w3.org/2000/svg"
    xmlns:xlink="http://www.w3.org/1999/xlink">
    <title>linkedin</title>
    <g id="Totara-12" stroke="none" stroke-width="1" fill="color" fill-rule="evenodd">
        <g id="Homepage" transform="translate(-1239.000000, -2924.000000)" fill="color">
            <g id="Group-14-Copy" transform="translate(0.000000, 2823.000000)">
                <g id="Group-18" transform="translate(1149.000000, 101.000000)">
                    <path d="M99,12 L99,36 L91,36 L91,12 L99,12 Z M99.9994852,4.5 C100.017502,5.78070175 99.5625708,6.85087719 98.6346906,7.71052632 C97.7068105,8.57017544 96.4861526,9 94.972717,9 L94.9186657,9 C93.4412643,9 92.2521363,8.57017544 91.3512818,7.71052632 C90.4504273,6.85087719 90,5.78070175 90,4.5 C90,3.20175439 90.4639401,2.12719298 91.3918202,1.27631579 C92.3197004,0.425438596 93.5313497,0 95.0267682,0 C96.5221868,0 97.7203233,0.425438596 98.6211778,1.27631579 C99.5220323,2.12719298 99.9814681,3.20175439 99.9994852,4.5 Z M128,21.9960552 L128,36 L119.81592,36 L119.81592,22.9329389 C119.81592,21.2071006 119.4801,19.855194 118.808458,18.8772189 C118.136816,17.8992439 117.087894,17.4102564 115.661692,17.4102564 C114.616915,17.4102564 113.742123,17.693787 113.037313,18.2608481 C112.332504,18.8279093 111.80597,19.530572 111.457711,20.3688363 C111.27529,20.8619329 111.18408,21.5276134 111.18408,22.3658777 L111.18408,36 L103,36 C103.033167,29.4418146 103.049751,24.1245891 103.049751,20.0483235 C103.049751,15.9720579 103.041459,13.5394477 103.024876,12.7504931 L103,11.5670611 L111.18408,11.5670611 L111.18408,15.117357 L111.134328,15.117357 C111.466003,14.5913872 111.80597,14.1311637 112.154229,13.7366864 C112.502488,13.3422091 112.970978,12.9148586 113.559701,12.4546351 C114.148425,11.9944116 114.869818,11.6369165 115.723881,11.3821499 C116.577944,11.1273833 117.527363,11 118.572139,11 C121.40796,11 123.688226,11.9327745 125.412935,13.7983235 C127.137645,15.6638725 128,18.3964497 128,21.9960552 Z" id="linkedin"></path>
                </g>
            </g>
        </g>
    </g>
</svg>