<?xml version="1.0" encoding="UTF-8"?><svg xmlns="http://www.w3.org/2000/svg" xmlns:xlink="http://www.w3.org/1999/xlink"><symbol viewBox="0 0 12 12" id="arrow-right" xmlns="http://www.w3.org/2000/svg"><path class="aicon aarrow-right" fill="#e6007e" fill-rule="nonzero" d="M11.743 6.297c.07-.157.07-.367 0-.594-.07-.07-.07-.14-.14-.21L6.506.398C6.226.1 5.791.1 5.494.397c-.297.297-.297.733 0 1.012L9.35 5.267H.903c-.436 0-.715.297-.715.733s.279.733.715.733h8.448l-3.857 3.84a.707.707 0 000 1.03c.14.14.366.21.506.21s.367-.07.506-.21l5.097-5.097c.07-.07.14-.14.14-.21z"/></symbol><symbol viewBox="0 0 38 36" id="linkedin" xmlns="http://www.w3.org/2000/svg"><path d="M9 12v24H1V12h8zm1-7.5c.018 1.28-.437 2.35-1.365 3.21C7.707 8.57 6.486 9 4.973 9h-.054C3.44 9 2.252 8.57 1.35 7.71.451 6.85 0 5.78 0 4.5c0-1.298.464-2.373 1.392-3.224C2.32.426 3.532 0 5.027 0 6.522 0 7.72.425 8.62 1.276 9.522 2.127 9.981 3.202 10 4.5zm28 17.496V36h-8.184V22.933c0-1.726-.336-3.078-1.008-4.056-.671-.978-1.72-1.467-3.146-1.467-1.045 0-1.92.284-2.625.85a5.247 5.247 0 00-1.58 2.109c-.182.493-.273 1.159-.273 1.997V36H13c.033-6.558.05-11.875.05-15.952 0-4.076-.009-6.509-.025-7.298L13 11.567h8.184v3.55h-.05c.332-.526.672-.986 1.02-1.38.348-.395.817-.822 1.406-1.282.588-.46 1.31-.818 2.164-1.073.854-.255 1.803-.382 2.848-.382 2.836 0 5.116.933 6.84 2.798C37.139 15.664 38 18.396 38 21.996z" fill="color" fill-rule="evenodd"/></symbol><symbol viewBox="0 0 0 0" id="sprite" xmlns="http://www.w3.org/2000/svg"/><symbol viewBox="0 0 38 31" id="twitter" xmlns="http://www.w3.org/2000/svg"><path d="M38 3.681a16.36 16.36 0 01-3.906 4.045c.016.226.024.565.024 1.017 0 2.099-.305 4.194-.916 6.285-.611 2.09-1.54 4.097-2.785 6.018a23.627 23.627 0 01-4.449 5.098c-1.72 1.477-3.793 2.656-6.22 3.536-2.428.88-5.024 1.32-7.789 1.32C7.603 31 3.617 29.83 0 27.488c.563.065 1.19.097 1.88.097 3.617 0 6.84-1.114 9.67-3.342-1.688-.032-3.2-.553-4.534-1.562-1.334-1.01-2.25-2.297-2.748-3.863.53.08 1.02.121 1.47.121.692 0 1.375-.089 2.05-.266-1.8-.372-3.291-1.272-4.473-2.7-1.181-1.43-1.772-3.089-1.772-4.978v-.097a7.7 7.7 0 003.52.993 7.801 7.801 0 01-2.531-2.785 7.649 7.649 0 01-.94-3.73 7.69 7.69 0 011.06-3.947 22.097 22.097 0 007.101 5.776c2.79 1.445 5.775 2.248 8.958 2.41a8.726 8.726 0 01-.193-1.792c0-2.164.76-4.009 2.278-5.534C22.316.763 24.152 0 26.306 0c2.25 0 4.147.823 5.69 2.47A15.23 15.23 0 0036.94.581c-.595 1.857-1.736 3.294-3.424 4.311 1.495-.161 2.99-.565 4.485-1.21z" fill="color" fill-rule="evenodd"/></symbol><symbol viewBox="0 0 44 30" id="youtube-play" xmlns="http://www.w3.org/2000/svg"><path d="M17 21l12-5.964L17 9v12zm5-21c2.75 0 5.406.036 7.967.107 2.562.072 4.44.147 5.635.226l1.792.096c.017 0 .156.011.418.035.262.024.45.048.564.072.115.024.307.06.577.107.27.047.504.111.7.19.196.08.426.183.687.31.262.127.516.282.762.464a5.761 5.761 0 011.092 1.072c.156.198.393.662.712 1.392.32.73.536 1.532.65 2.405.132 1.016.234 2.1.308 3.25a74.18 74.18 0 01.135 2.703v4.19a48.905 48.905 0 01-.442 6.905 9.267 9.267 0 01-.614 2.369c-.295.706-.556 1.194-.786 1.464l-.343.405c-.23.238-.467.448-.712.63-.246.183-.5.334-.762.453-.261.12-.49.218-.687.298-.196.08-.43.143-.7.19-.27.048-.466.084-.589.107a6.383 6.383 0 01-.565.072c-.253.024-.388.036-.405.036-4.108.301-9.24.452-15.394.452-3.388-.032-6.33-.083-8.827-.155-2.496-.071-4.137-.13-4.922-.178l-1.203-.096-.884-.095c-.59-.08-1.035-.159-1.338-.238-.303-.08-.72-.246-1.252-.5a4.907 4.907 0 01-1.388-.976 4.587 4.587 0 01-.38-.44c-.156-.199-.393-.663-.712-1.393a8.849 8.849 0 01-.65-2.405c-.132-1.016-.234-2.1-.308-3.25a74.18 74.18 0 01-.135-2.703v-4.19c-.016-2.302.131-4.603.442-6.905.115-.873.32-1.663.614-2.369.295-.706.556-1.194.786-1.464l.343-.405c.23-.238.467-.448.712-.63.246-.183.5-.338.762-.465.261-.127.49-.23.687-.31.196-.079.43-.143.7-.19.27-.048.462-.083.577-.107a5.63 5.63 0 01.564-.072C6.45.44 6.59.43 6.606.43 10.714.143 15.846 0 22 0z" fill="color" fill-rule="evenodd"/></symbol></svg>