<?xml version="1.0" encoding="UTF-8"?>
<svg width="38px" height="31px" viewBox="0 0 38 31" version="1.1"
    xmlns="http://www.w3.org/2000/svg"
    xmlns:xlink="http://www.w3.org/1999/xlink">
    <title>twitter</title>
    <g id="Totara-12" stroke="none" stroke-width="1" fill="color" fill-rule="evenodd">
        <g id="Homepage" transform="translate(-1323.000000, -2929.000000)" fill="color">
            <g id="Group-14-Copy" transform="translate(0.000000, 2823.000000)">
                <g id="Group-18" transform="translate(1149.000000, 101.000000)">
                    <path d="M212,8.68125 C210.923012,10.2635417 209.620981,11.6117188 208.093909,12.7257813 C208.109983,12.9518229 208.11802,13.2908854 208.11802,13.7429688 C208.11802,15.8419271 207.812606,17.936849 207.201777,20.0277344 C206.590948,22.1186198 205.662648,24.1247396 204.416878,26.0460938 C203.171108,27.9674479 201.68824,29.6667969 199.968274,31.1441406 C198.248308,32.6214844 196.174704,33.8001302 193.747462,34.6800781 C191.32022,35.560026 188.724196,36 185.959391,36 C181.603215,36 177.616751,34.8294271 174,32.4882812 C174.562606,32.5528646 175.189509,32.5851562 175.880711,32.5851562 C179.497462,32.5851562 182.720389,31.4710937 185.549492,29.2429687 C183.861675,29.2106771 182.350677,28.689974 181.016497,27.6808594 C179.682318,26.6717448 178.766074,25.3841146 178.267766,23.8179688 C178.798223,23.8986979 179.288494,23.9390625 179.738579,23.9390625 C180.42978,23.9390625 181.112944,23.8502604 181.788071,23.6726562 C179.987733,23.3013021 178.496827,22.4011719 177.315355,20.9722656 C176.133883,19.5433594 175.543147,17.884375 175.543147,15.9953125 L175.543147,15.8984375 C176.63621,16.5119792 177.809645,16.8429687 179.063452,16.8914063 C178.002538,16.1809896 177.158629,15.2526042 176.531726,14.10625 C175.904822,12.9598958 175.591371,11.7166667 175.591371,10.3765625 C175.591371,8.95572917 175.945008,7.63984375 176.652284,6.42890625 C178.597293,8.83463542 180.964255,10.760026 183.753173,12.2050781 C186.54209,13.6501302 189.527919,14.4533854 192.71066,14.6148438 C192.582064,14.0013021 192.517766,13.4039063 192.517766,12.8226562 C192.517766,10.6591146 193.277284,8.81445312 194.79632,7.28867188 C196.315355,5.76289062 198.151861,5 200.305838,5 C202.556261,5 204.453046,5.8234375 205.996193,7.4703125 C207.748308,7.13125 209.395939,6.5015625 210.939086,5.58125 C210.344332,7.43802083 209.203046,8.875 207.515228,9.8921875 C209.010152,9.73072917 210.505076,9.32708333 212,8.68125 Z" id="twitter"></path>
                </g>
            </g>
        </g>
    </g>
</svg>