<?xml version="1.0" encoding="UTF-8"?>
<svg width="44px" height="30px" viewBox="0 0 44 30" version="1.1"
    xmlns="http://www.w3.org/2000/svg"
    xmlns:xlink="http://www.w3.org/1999/xlink">
    <title>youtube-play</title>
    <g id="Totara-12" stroke="none" stroke-width="1" fill="color" fill-rule="evenodd">
        <g id="Homepage" transform="translate(-1149.000000, -2929.000000)" fill="color">
            <g id="Group-14-Copy" transform="translate(0.000000, 2823.000000)">
                <g id="Group-18" transform="translate(1149.000000, 101.000000)">
                    <path d="M17,26 L29,20.0357853 L17,14 L17,26 Z M22,5 C24.7498465,5 27.4055763,5.03571429 29.9671893,5.10714286 C32.5288023,5.17857143 34.4070457,5.25396825 35.6019195,5.33333333 L37.3942302,5.42857143 C37.4105984,5.42857143 37.5497275,5.44047619 37.8116177,5.46428571 C38.0735078,5.48809524 38.2617413,5.51190476 38.3763183,5.53571429 C38.4908952,5.55952381 38.6832208,5.5952381 38.953295,5.64285714 C39.2233692,5.69047619 39.4566151,5.75396825 39.6530328,5.83333333 C39.8494504,5.91269841 40.0786042,6.01587302 40.3404944,6.14285714 C40.6023845,6.26984127 40.8560906,6.42460317 41.1016126,6.60714286 C41.3471346,6.78968254 41.5844726,7 41.8136265,7.23809524 C41.9118353,7.33333333 42.0386883,7.48015873 42.1941856,7.67857143 C42.3496829,7.87698413 42.5870208,8.34126984 42.9061994,9.07142857 C43.225378,9.8015873 43.4422558,10.6031746 43.5568328,11.4761905 C43.6877778,12.4920635 43.7900787,13.5753968 43.8637353,14.7261905 C43.9373919,15.8769841 43.9824043,16.7777778 43.9987724,17.4285714 L43.9987724,21.6190476 C44.0151405,23.9206349 43.8678273,26.2222222 43.5568328,28.5238095 C43.4422558,29.3968254 43.2376541,30.1865079 42.9430277,30.8928571 C42.6484013,31.5992063 42.3865112,32.0873016 42.1573573,32.3571429 L41.8136265,32.7619048 C41.5844726,33 41.3471346,33.2103175 41.1016126,33.3928571 C40.8560906,33.5753968 40.6023845,33.7261905 40.3404944,33.8452381 C40.0786042,33.9642857 39.8494504,34.0634921 39.6530328,34.1428571 C39.4566151,34.2222222 39.2233692,34.2857143 38.953295,34.3333333 C38.6832208,34.3809524 38.4868032,34.4166667 38.3640422,34.4404762 C38.2412812,34.4642857 38.0530476,34.4880952 37.7993416,34.5119048 C37.5456355,34.5357143 37.4105984,34.547619 37.3942302,34.547619 C33.2858285,34.8492063 28.1544185,35 22,35 C18.6117962,34.968254 15.6696241,34.9166667 13.1734836,34.8452381 C10.6773432,34.7738095 9.0364377,34.7142857 8.25076726,34.6666667 L7.04770939,34.5714286 L6.16383014,34.4761905 C5.57457731,34.3968254 5.12854565,34.3174603 4.82573517,34.2380952 C4.52292469,34.1587302 4.10553727,33.9920635 3.5735729,33.7380952 C3.04160854,33.484127 2.57920875,33.1587302 2.18637353,32.7619048 C2.08816472,32.6666667 1.96131168,32.5198413 1.80581441,32.3214286 C1.65031713,32.1230159 1.41297919,31.6587302 1.09380057,30.9285714 C0.774621952,30.1984127 0.557744174,29.3968254 0.443167234,28.5238095 C0.31222216,27.5079365 0.209921321,26.4246032 0.136264717,25.2738095 C0.0626081134,24.1230159 0.0175957443,23.2222222 0.00122761007,22.5714286 L0.00122761007,18.3809524 C-0.0151405242,16.0793651 0.132172684,13.7777778 0.443167234,11.4761905 C0.557744174,10.6031746 0.762345851,9.81349206 1.05697227,9.10714286 C1.35159868,8.40079365 1.61348883,7.91269841 1.84264271,7.64285714 L2.18637353,7.23809524 C2.41552741,7 2.65286535,6.78968254 2.89838737,6.60714286 C3.14390938,6.42460317 3.39761546,6.26984127 3.65950561,6.14285714 C3.92139576,6.01587302 4.15054963,5.91269841 4.34696725,5.83333333 C4.54338486,5.75396825 4.77663077,5.69047619 5.04670498,5.64285714 C5.3167792,5.5952381 5.50910477,5.55952381 5.62368171,5.53571429 C5.73825865,5.51190476 5.9264922,5.48809524 6.18838234,5.46428571 C6.45027249,5.44047619 6.58940163,5.42857143 6.60576977,5.42857143 C10.7141715,5.14285714 15.8455815,5 22,5 Z" id="youtube-play"></path>
                </g>
            </g>
        </g>
    </g>
</svg>